<!-- MARCADOR DE LUGAR - no es una foto real de AUME.
     Se reemplaza por la foto de una vianda del menu Vegetariano cuando llegue el material.
     Ver README, punto 5. -->
<svg xmlns="http://www.w3.org/2000/svg" viewBox="0 0 800 600" role="img" aria-hidden="true">
  <rect width="800" height="600" fill="#E7F0EA"/>
  <circle cx="400" cy="300" r="292" fill="#3E7A5E" opacity=".18"/>
  <circle cx="400" cy="300" r="268" fill="#FFFFFF"/>
  <circle cx="400" cy="300" r="268" fill="none" stroke="#3E7A5E" stroke-width="4" opacity=".3"/>
  <circle cx="400" cy="300" r="226" fill="none" stroke="#3E7A5E" stroke-width="2" opacity=".2"/>
  <ellipse cx="272" cy="224" rx="104" ry="50" fill="#3E7A5E" opacity=".5" transform="rotate(-28 272 224)"/>
  <ellipse cx="420" cy="186" rx="104" ry="50" fill="#3E7A5E" opacity=".5" transform="rotate(12 420 186)"/>
  <ellipse cx="566" cy="262" rx="104" ry="50" fill="#3E7A5E" opacity=".5" transform="rotate(44 566 262)"/>
  <ellipse cx="250" cy="372" rx="104" ry="50" fill="#3E7A5E" opacity=".5" transform="rotate(-8 250 372)"/>
  <ellipse cx="430" cy="424" rx="104" ry="50" fill="#3E7A5E" opacity=".5" transform="rotate(20 430 424)"/>
  <ellipse cx="576" cy="392" rx="104" ry="50" fill="#3E7A5E" opacity=".5" transform="rotate(-34 576 392)"/>
  <circle cx="400" cy="300" r="46" fill="#4A8B6C" opacity=".85"/>
  <circle cx="318" cy="300" r="26" fill="#4A8B6C" opacity=".85"/>
  <circle cx="490" cy="336" r="30" fill="#4A8B6C" opacity=".85"/>
</svg>
